<svg width="29" height="26" viewBox="0 0 29 26" fill="none" xmlns="http://www.w3.org/2000/svg">
<path d="M5.01038 17.0327H2.1193C1.36675 17.0327 0.753662 17.652 0.753662 18.4121V24.5022C0.753662 25.2623 1.36675 25.8816 2.1193 25.8816H5.01038C5.76294 25.8816 6.37602 25.2623 6.37602 24.5022V18.4151C6.37602 17.652 5.76294 17.0327 5.01038 17.0327ZM5.21378 24.5051C5.21378 24.6196 5.1208 24.7106 5.01038 24.7106H2.1193C2.00598 24.7106 1.91591 24.6166 1.91591 24.5051V18.4151C1.91591 18.3006 2.00889 18.2096 2.1193 18.2096H5.01038C5.1237 18.2096 5.21378 18.3035 5.21378 18.4151V24.5051Z" fill="#818D99"/>
<path d="M12.2803 11.9846H9.3892C8.63664 11.9846 8.02356 12.6038 8.02356 13.364V24.5051C8.02356 25.2653 8.63664 25.8845 9.3892 25.8845H12.2803C13.0328 25.8845 13.6459 25.2653 13.6459 24.5051V13.364C13.6488 12.6038 13.0357 11.9846 12.2803 11.9846ZM12.4866 24.5051C12.4866 24.6196 12.3936 24.7106 12.2832 24.7106H9.3921C9.27878 24.7106 9.18871 24.6166 9.18871 24.5051V13.364C9.18871 13.2495 9.28169 13.1585 9.3921 13.1585H12.2832C12.3965 13.1585 12.4866 13.2525 12.4866 13.364V24.5051Z" fill="#818D99"/>
<path d="M19.553 14.535H16.6619C15.9093 14.535 15.2963 15.1543 15.2963 15.9145V24.5022C15.2963 25.2623 15.9093 25.8816 16.6619 25.8816H19.553C20.3055 25.8816 20.9186 25.2623 20.9186 24.5022V15.9174C20.9186 15.1543 20.3055 14.535 19.553 14.535ZM19.7564 24.5051C19.7564 24.6196 19.6634 24.7105 19.553 24.7105H16.6619C16.5486 24.7105 16.4585 24.6166 16.4585 24.5051V15.9174C16.4585 15.8029 16.5515 15.712 16.6619 15.712H19.553C19.6663 15.712 19.7564 15.8059 19.7564 15.9174V24.5051Z" fill="#818D99"/>
<path d="M26.8228 9.33424H23.9317C23.1791 9.33424 22.566 9.95352 22.566 10.7137V24.5051C22.566 25.2652 23.1791 25.8845 23.9317 25.8845H26.8228C27.5753 25.8845 28.1884 25.2652 28.1884 24.5051V10.7137C28.1913 9.95352 27.5782 9.33424 26.8228 9.33424ZM27.0291 24.5051C27.0291 24.6195 26.9361 24.7105 26.8257 24.7105H23.9346C23.8213 24.7105 23.7312 24.6166 23.7312 24.5051V10.7137C23.7312 10.5992 23.8242 10.5082 23.9346 10.5082H26.8257C26.939 10.5082 27.0291 10.6021 27.0291 10.7137V24.5051Z" fill="#818D99"/>
<path d="M23.4611 5.80644C23.9638 6.27897 24.635 6.57246 25.3759 6.57246C26.9304 6.57246 28.1914 5.29869 28.1914 3.72848C28.1914 2.15828 26.9304 0.884506 25.3759 0.884506C23.8214 0.884506 22.5604 2.15828 22.5604 3.72848C22.5604 4.12764 22.6417 4.50331 22.787 4.84964L20.1138 6.74856C19.7303 6.35234 19.2305 6.06471 18.6523 5.95025C17.4087 5.70078 16.1971 6.32006 15.6247 7.39132L13.6198 6.67812C13.7999 5.28988 12.9457 3.94274 11.5713 3.56706C10.072 3.15323 8.52334 4.0484 8.11656 5.56284C7.94803 6.18798 8.00324 6.819 8.22697 7.37371L5.52185 9.21393C5.01627 8.71792 4.32473 8.40975 3.56346 8.40975C2.00896 8.40975 0.747925 9.68352 0.747925 11.2537C0.747925 12.8239 2.00896 14.0977 3.56346 14.0977C5.11797 14.0977 6.379 12.8239 6.379 11.2537C6.379 10.8751 6.30345 10.5171 6.1727 10.1883L8.87492 8.35105C9.20616 8.67683 9.61876 8.92337 10.0953 9.05544C11.3331 9.3959 12.6028 8.84412 13.2392 7.78754L15.3021 8.52128C15.1917 9.93886 16.1448 11.2449 17.5598 11.5296C19.0852 11.8348 20.5671 10.834 20.8693 9.29317C20.9739 8.75314 20.9187 8.22191 20.7414 7.74351L23.4611 5.80644ZM25.3788 1.99979C26.3231 1.99979 27.0902 2.77462 27.0902 3.72848C27.0902 4.68235 26.3231 5.45718 25.3788 5.45718C24.4345 5.45718 23.6674 4.68235 23.6674 3.72848C23.6674 2.77462 24.4316 1.99979 25.3788 1.99979ZM3.56346 12.9795C2.61914 12.9795 1.85206 12.2047 1.85206 11.2508C1.85206 10.2969 2.61914 9.5221 3.56346 9.5221C4.50779 9.5221 5.27487 10.2969 5.27487 11.2508C5.27487 12.2047 4.51069 12.9795 3.56346 12.9795ZM12.4866 6.7603C12.2396 7.68188 11.2982 8.22485 10.3858 7.97537C9.47348 7.7259 8.93594 6.77497 9.18292 5.8534C9.42989 4.93182 10.3713 4.38885 11.2837 4.63832C12.196 4.89073 12.7365 5.84166 12.4866 6.7603ZM19.7855 9.07305C19.6024 10.0093 18.7017 10.6168 17.7748 10.4319C16.8479 10.247 16.2465 9.3372 16.4295 8.40094C16.6126 7.46469 17.5133 6.85715 18.4402 7.04206C19.3671 7.22696 19.9685 8.1368 19.7855 9.07305Z" fill="#818D99"/>
</svg>
