<svg width="34" height="21" viewBox="0 0 34 21" fill="none" xmlns="http://www.w3.org/2000/svg">
<path d="M26.5306 14.399C25.8712 13.0242 23.5121 11.1159 21.2329 9.27201C19.9616 8.24437 18.7604 7.27276 17.9946 6.50697C17.8028 6.31376 17.5158 6.25214 17.2624 6.34316C16.7906 6.51399 16.4994 6.64557 16.2698 6.74775C15.9198 6.90453 15.8022 6.95776 15.3304 7.00533C15.1217 7.02634 14.9342 7.13836 14.818 7.31194C13.8281 8.79176 12.8033 8.66575 12.1187 8.43619C11.9003 8.36341 11.8611 8.26957 11.8401 8.17999C11.6931 7.56539 12.4309 6.13454 13.3871 5.17829C15.6622 2.90183 16.8354 2.332 19.3134 3.43945C22.1247 4.69666 24.9416 5.68092 24.9696 5.6907C25.3378 5.81808 25.734 5.62488 25.8614 5.25947C25.9874 4.89406 25.7956 4.49505 25.4302 4.36767C25.4022 4.35789 22.6413 3.39324 19.886 2.15979C16.6758 0.724734 14.9145 1.66976 12.3986 4.18706C11.441 5.14469 10.1403 7.08231 10.4764 8.50339C10.6205 9.10821 11.0462 9.55624 11.679 9.7648C13.2652 10.2884 14.7128 9.78718 15.7909 8.35639C16.2361 8.28781 16.4783 8.18701 16.8423 8.0232C16.9739 7.9644 17.1279 7.89582 17.3323 7.8132C18.1331 8.56502 19.214 9.44002 20.3522 10.3598C22.4102 12.0245 24.7441 13.9118 25.2691 15.0038C25.5282 15.5428 25.2495 15.8942 25.0605 16.0552C24.7833 16.2932 24.4039 16.3688 24.1981 16.2246C23.9713 16.0692 23.6759 16.0594 23.4421 16.1994C23.2069 16.3393 23.0753 16.604 23.1047 16.8756C23.1523 17.3208 22.7449 17.5756 22.5685 17.6638C22.1204 17.8906 21.6528 17.8514 21.4778 17.689C21.2818 17.507 21.0004 17.4538 20.7512 17.5462C20.502 17.64 20.3284 17.8696 20.3032 18.1356C20.2612 18.5948 19.9209 19.0358 19.4771 19.208C19.2629 19.2892 18.9521 19.3382 18.6735 19.0834C18.4999 18.9266 18.2591 18.8664 18.0337 18.921C17.8055 18.9769 17.6221 19.1422 17.5423 19.362C17.5157 19.432 17.4555 19.6 16.8003 19.6C16.3341 19.6 15.4954 19.285 15.0852 19.0134C14.5938 18.69 11.5123 16.3911 8.85091 14.1622C8.4771 13.8472 7.83029 13.1724 7.25907 12.576C6.75224 12.0468 6.28885 11.5666 6.05082 11.365C5.75261 11.113 5.3116 11.1508 5.0638 11.4476C4.81461 11.743 4.85097 12.1854 5.14642 12.4346C5.36345 12.6181 5.78346 13.0618 6.24685 13.5448C6.87129 14.1972 7.51666 14.8721 7.95071 15.2361C10.5576 17.4188 13.6909 19.775 14.3153 20.1852C14.8305 20.524 15.9407 21 16.8003 21C17.4905 21 18.0212 20.8418 18.3894 20.5324C18.8821 20.7243 19.4422 20.7256 19.9812 20.5156C20.6182 20.2692 21.1418 19.7722 21.4386 19.1702C21.9902 19.2878 22.6217 19.2052 23.1957 18.9168C23.7571 18.6341 24.1631 18.2014 24.3647 17.696C24.9219 17.7254 25.4959 17.528 25.9705 17.1206C26.7742 16.4332 26.9954 15.3636 26.5306 14.399Z" fill="#818D99"/>
<path d="M14.0001 2.79973H7.69992C7.31351 2.79973 6.99988 3.11336 6.99988 3.49977C6.99988 3.88618 7.31351 4.19981 7.69992 4.19981H14.0001C14.3865 4.19981 14.7001 3.88618 14.7001 3.49977C14.7001 3.11336 14.3865 2.79973 14.0001 2.79973Z" fill="#818D99"/>
<path d="M28.5818 12.9093C28.3648 12.5887 27.9308 12.5005 27.6102 12.7189L25.5634 14.0937C25.2428 14.3093 25.1573 14.7448 25.373 15.0653C25.5087 15.2656 25.73 15.3748 25.9554 15.3748C26.0884 15.3748 26.2242 15.337 26.3446 15.2558L28.3915 13.881C28.712 13.6653 28.7974 13.23 28.5818 12.9093Z" fill="#818D99"/>
<path d="M24.236 16.2499C23.7348 15.8551 21.4933 13.5605 20.1073 12.1156C19.8399 11.8356 19.3961 11.8258 19.1174 12.0946C18.8374 12.3621 18.829 12.8058 19.0964 13.0845C19.4563 13.4597 22.6301 16.768 23.3679 17.3504C23.4953 17.4512 23.6493 17.5002 23.8005 17.5002C24.0063 17.5002 24.2122 17.4078 24.3521 17.2328C24.5916 16.9303 24.5398 16.4893 24.236 16.2499Z" fill="#818D99"/>
<path d="M21.4386 17.6541C20.6 16.9835 18.493 14.7448 18.0169 14.2268C17.7537 13.9412 17.3127 13.9244 17.0271 14.1848C16.7428 14.4466 16.7233 14.8905 16.9851 15.1747C17.0103 15.2013 19.5247 17.916 20.5635 18.7476C20.6924 18.8498 20.8478 18.9002 21.0004 18.9002C21.2048 18.9002 21.4091 18.8092 21.5477 18.6384C21.7887 18.3359 21.7396 17.8949 21.4386 17.6541Z" fill="#818D99"/>
<path d="M18.6526 19.064C17.6543 18.2226 15.6117 16.0483 15.2127 15.6213C14.948 15.3385 14.5042 15.3231 14.2228 15.5877C13.94 15.8523 13.926 16.2947 14.1892 16.5775C14.7632 17.1921 16.7177 19.2642 17.7495 20.135C17.8811 20.2456 18.0407 20.3002 18.2003 20.3002C18.3991 20.3002 18.598 20.2148 18.7366 20.051C18.9857 19.7542 18.9479 19.3132 18.6526 19.064Z" fill="#818D99"/>
<path d="M8.18181 1.59142C6.98195 0.454564 2.18406 0.086332 0.742041 0.000951629C0.543257 -0.00882676 0.359831 0.0569316 0.219849 0.189957C0.079802 0.321539 0 0.506343 0 0.699549V13.2999C0 13.6863 0.31363 13.9999 0.70004 13.9999H4.90015C5.20255 13.9999 5.47136 13.8053 5.56514 13.5169C5.66732 13.2033 8.07963 5.79993 8.39739 2.15981C8.41563 1.94698 8.33721 1.73698 8.18181 1.59142ZM4.38911 12.5999H1.40001V1.44999C3.64989 1.62777 6.07755 2.01418 6.95958 2.4426C6.58859 5.50868 4.90992 10.9562 4.38911 12.5999Z" fill="#818D99"/>
<path d="M32.9008 1.39976C27.4043 1.39976 24.355 2.80679 24.2276 2.8656C24.0457 2.95098 23.9098 3.1092 23.8538 3.30103C23.7978 3.49285 23.8258 3.69866 23.9308 3.86942C24.796 5.26247 27.5051 12.9991 28.0259 14.8863C28.1099 15.1901 28.3857 15.4001 28.7007 15.4001H32.9008C33.2872 15.4001 33.6009 15.0864 33.6009 14.7V2.09973C33.6009 1.71195 33.2872 1.39976 32.9008 1.39976ZM32.2009 14.0001H29.2244C28.5608 11.8384 26.6007 6.20185 25.5073 3.87224C26.5755 3.50965 28.8702 2.8866 32.2009 2.80824V14.0001Z" fill="#818D99"/>
</svg>
