<svg width="14" height="15" viewBox="0 0 14 15" fill="none" xmlns="http://www.w3.org/2000/svg">
<path d="M13.7588 13.094L10.8534 10.1887C11.6231 9.17545 12.0795 7.91125 12.0795 6.53995C12.0795 3.2041 9.37539 0.5 6.03991 0.5C2.70408 0.5 0 3.2041 0 6.53995C0 9.8758 2.70408 12.5795 6.03991 12.5795C7.41085 12.5795 8.67505 12.1228 9.68864 11.3535L12.594 14.2588C12.7546 14.4195 12.9657 14.5 13.1764 14.5C13.3871 14.5 13.5981 14.4195 13.7588 14.2588C14.0804 13.9372 14.0804 13.416 13.7588 13.094ZM6.03991 10.9325C4.86637 10.9325 3.76318 10.4757 2.93368 9.6462C2.10384 8.81635 1.64709 7.7135 1.64709 6.53995C1.64709 5.3664 2.10384 4.2632 2.93368 3.4337C3.76318 2.60385 4.86637 2.1471 6.03991 2.1471C7.21311 2.1471 8.3163 2.60385 9.14579 3.4337C9.97564 4.2632 10.4324 5.3664 10.4324 6.53995C10.4324 7.43385 10.1671 8.2868 9.67359 9.0092C9.51959 9.2353 9.34319 9.44845 9.14544 9.64585C8.94769 9.8436 8.73455 10.0197 8.5088 10.1737C7.78675 10.6672 6.93346 10.9325 6.03991 10.9325Z" fill="#798999"/>
</svg>
