<svg width="46" height="20" viewBox="0 0 46 20" fill="none" xmlns="http://www.w3.org/2000/svg">
<path d="M30.3581 3.25123C31.2655 3.25123 32.0011 2.52342 32.0011 1.62562C32.0011 0.727813 31.2655 0 30.3581 0C29.4507 0 28.7151 0.727813 28.7151 1.62562C28.7151 2.52342 29.4507 3.25123 30.3581 3.25123Z" fill="#2A3744"/>
<path d="M33.6441 2.16748C33.9466 2.16748 34.1917 1.92488 34.1917 1.62561C34.1917 1.32634 33.9466 1.08374 33.6441 1.08374C33.3416 1.08374 33.0964 1.32634 33.0964 1.62561C33.0964 1.92488 33.3416 2.16748 33.6441 2.16748Z" fill="#2A3744"/>
<path d="M36.9426 3.25123C37.85 3.25123 38.5856 2.52342 38.5856 1.62562C38.5856 0.727813 37.85 0 36.9426 0C36.0352 0 35.2996 0.727813 35.2996 1.62562C35.2996 2.52342 36.0352 3.25123 36.9426 3.25123Z" fill="#2A3744"/>
<path d="M40.2285 2.16748C40.5309 2.16748 40.7761 1.92488 40.7761 1.62561C40.7761 1.32634 40.5309 1.08374 40.2285 1.08374C39.926 1.08374 39.6808 1.32634 39.6808 1.62561C39.6808 1.92488 39.926 2.16748 40.2285 2.16748Z" fill="#2A3744"/>
<path d="M43.5269 3.25123C44.4343 3.25123 45.1699 2.52342 45.1699 1.62562C45.1699 0.727813 44.4343 0 43.5269 0C42.6195 0 41.8839 0.727813 41.8839 1.62562C41.8839 2.52342 42.6195 3.25123 43.5269 3.25123Z" fill="#2A3744"/>
<path d="M4.58046 15.5542V0L0 0.960591V19.5936H12.7083V15.5542H4.58046Z" fill="#2A3744"/>
<path d="M30.1588 8.84238C30.8061 7.72169 31.7271 6.8473 32.8972 6.21922C34.0672 5.59115 35.4239 5.28326 36.9549 5.28326C38.4858 5.28326 39.8426 5.59115 41.0001 6.21922C42.1701 6.8473 43.0663 7.72169 43.726 8.84238C44.3732 9.96307 44.6969 11.2439 44.6969 12.6601C44.6969 14.0641 44.3732 15.3325 43.726 16.4409C43.0788 17.5616 42.1577 18.4237 40.9752 19.0517C39.7928 19.6798 38.4485 19.9877 36.9549 19.9877C35.4239 19.9877 34.0672 19.6798 32.8972 19.0517C31.7271 18.4237 30.8061 17.5616 30.1588 16.4409C29.5116 15.3202 29.188 14.0641 29.188 12.6601C29.1755 11.2439 29.4991 9.96307 30.1588 8.84238ZM34.5277 15.1971C35.1501 15.8621 35.9591 16.1946 36.9549 16.1946C37.9382 16.1946 38.7472 15.8621 39.3696 15.1971C39.9919 14.532 40.3031 13.6823 40.3031 12.6355C40.3031 11.601 39.9919 10.7512 39.382 10.0985C38.7721 9.44583 37.9631 9.11331 36.9549 9.11331C35.9467 9.11331 35.1376 9.44583 34.5153 10.0985C33.9054 10.7512 33.5942 11.601 33.5942 12.6355C33.5942 13.6823 33.9054 14.532 34.5277 15.1971Z" fill="#2A3744"/>
<path d="M27.8811 11.9581C27.8811 10.6774 27.5823 9.51972 26.9973 8.50987C26.4123 7.50001 25.5784 6.71184 24.508 6.13302C23.4375 5.56652 22.2053 5.28326 20.8237 5.28326C19.4172 5.28326 18.16 5.57883 17.0398 6.18228C15.9196 6.78573 15.0483 7.63548 14.4384 8.75617C13.8285 9.87686 13.5173 11.17 13.5173 12.6355C13.5173 14.0887 13.8285 15.3818 14.4384 16.4902C15.0483 17.5985 15.9196 18.4606 17.0398 19.0764C18.16 19.6921 19.4545 20 20.9108 20C21.8194 20 22.6658 19.8892 23.45 19.6552C24.2092 19.4335 24.9063 19.101 25.5411 18.6576C26.5741 17.9434 27.2836 17.0567 27.6819 15.9852L23.6989 15.1478C23.6367 15.2833 23.562 15.4187 23.4624 15.5296C23.2757 15.7636 23.0143 15.9729 22.6907 16.133C22.1928 16.3916 21.6078 16.5148 20.9232 16.5148C20.0146 16.5148 19.2803 16.2685 18.7077 15.7759C18.1351 15.2833 17.8364 14.6306 17.7991 13.8177H27.7193C27.8313 13.3005 27.8811 12.6847 27.8811 11.9581ZM17.8489 11.0468C17.8862 10.3448 18.1725 9.79065 18.6828 9.38425C19.2056 8.97785 19.8653 8.76849 20.6743 8.76849C21.4709 8.76849 22.1306 8.97785 22.6534 9.38425C23.1761 9.79065 23.4375 10.3448 23.4624 11.0468H17.8489Z" fill="#2A3744"/>
</svg>
