<svg width="30" height="30" viewBox="0 0 30 30" fill="none" xmlns="http://www.w3.org/2000/svg">
<path d="M14.972 7.62178C10.5935 7.62178 7.03174 10.974 7.03174 15.0939C7.03174 17.5747 8.68624 19.5717 9.78011 20.8938C9.95636 21.1062 10.1195 21.3025 10.2579 21.4811C10.955 22.3786 10.8684 23.0478 10.8684 23.0548L10.9017 23.3658C10.646 23.6644 10.4881 24.042 10.4881 24.4645C10.4881 24.8933 10.646 25.2918 10.9359 25.6059C10.646 25.9211 10.4881 26.3192 10.4881 26.7487C10.4881 27.6833 11.2329 28.4171 12.2022 28.4781C12.179 28.5614 12.1632 28.6483 12.1632 28.7386C12.1632 29.3202 12.665 29.7925 13.283 29.7925C13.901 29.7925 14.402 29.3202 14.402 28.7386C14.402 28.6525 14.3881 28.5695 14.3675 28.4891H15.8367C15.8154 28.5699 15.8015 28.6525 15.8015 28.7386C15.8015 29.3202 16.3025 29.7925 16.9205 29.7925C17.5392 29.7925 18.041 29.3202 18.041 28.7386C18.041 28.6525 18.0264 28.5695 18.0065 28.4891H18.0204C19.0531 28.4891 19.8616 27.7246 19.8616 26.7484C19.8616 26.3188 19.7041 25.9204 19.4142 25.6055C19.7041 25.2911 19.8616 24.8933 19.8616 24.4641C19.8616 24.0939 19.745 23.7554 19.5444 23.4762L19.5189 23.0082C19.5181 23.0019 19.4199 22.4132 20.1076 21.1105C20.3559 20.6404 20.687 20.1724 21.0365 19.6772C21.9147 18.4345 22.9092 17.0266 22.9092 15.0932C22.9111 10.9737 19.3501 7.62178 14.972 7.62178ZM17.9517 27.5061H12.2585C11.9896 27.5061 11.6881 27.1821 11.6881 26.7491C11.6881 26.315 11.9896 25.991 12.2585 25.991H17.9517C18.2206 25.991 18.5217 26.315 18.5217 26.7491C18.5217 27.1821 18.2206 27.5061 17.9517 27.5061ZM12.3762 23.7071H18.068C18.3376 23.7071 18.6391 24.0311 18.6391 24.4645C18.6391 24.8979 18.3372 25.2219 18.068 25.2219H12.3762C12.1062 25.2219 11.8051 24.8979 11.8051 24.4645C11.8051 24.0311 12.1066 23.7071 12.3762 23.7071ZM19.5069 18.719C19.1405 19.2374 18.7629 19.7728 18.4632 20.3404C18.0159 21.186 17.81 21.8506 17.7249 22.3504H12.6444C12.5442 21.8375 12.2994 21.1758 11.7432 20.4597C11.5944 20.268 11.42 20.057 11.2317 19.8297C10.2354 18.6268 8.87074 16.98 8.87074 15.0942C8.87074 11.9284 11.6082 9.35295 14.9724 9.35295C18.3357 9.35295 21.0721 11.9284 21.0721 15.0942C21.0717 16.5042 20.3116 17.5804 19.5069 18.719Z" fill="#818D99"/>
<path d="M15.0762 5.97953C15.4996 5.97953 15.8423 5.65659 15.8423 5.25847V0.956115C15.8423 0.557998 15.4996 0.235057 15.0762 0.235057C14.6528 0.235057 14.3101 0.557998 14.3101 0.956115V5.25812C14.3101 5.65659 14.6528 5.97953 15.0762 5.97953Z" fill="#818D99"/>
<path d="M5.29958 10.3737L1.33996 8.22288C0.973585 8.02382 0.505585 8.14205 0.29296 8.48688C0.081835 8.83205 0.207085 9.27323 0.573835 9.47229L4.53196 11.6231C4.89908 11.8225 5.36783 11.7039 5.58008 11.3591C5.79196 11.0143 5.66596 10.5728 5.29958 10.3737Z" fill="#818D99"/>
<path d="M29.8586 8.48688C29.6463 8.14205 29.1783 8.02382 28.8119 8.22288L24.8523 10.3737C24.486 10.5728 24.3603 11.0139 24.5718 11.3591C24.7841 11.7039 25.2528 11.8222 25.62 11.6231L29.5781 9.47229C29.9452 9.27288 30.0704 8.8317 29.8586 8.48688Z" fill="#818D99"/>
<path d="M7.80452 7.21976C8.01565 7.56494 8.48552 7.68317 8.85152 7.48411C9.21865 7.28505 9.34352 6.84352 9.1324 6.4987L6.8464 2.7727C6.63527 2.42788 6.16615 2.30964 5.7994 2.5087C5.4334 2.70776 5.3074 3.14894 5.51927 3.49411L7.80452 7.21976Z" fill="#818D99"/>
<path d="M21.3004 7.48411C21.6668 7.68317 22.1363 7.56494 22.3478 7.21976L24.633 3.49411C24.8445 3.14894 24.7189 2.70776 24.3525 2.5087C23.9862 2.30964 23.5167 2.42788 23.3059 2.7727L21.0199 6.4987C20.8088 6.84317 20.934 7.2847 21.3004 7.48411Z" fill="#818D99"/>
</svg>
