<svg width="25" height="25" viewBox="0 0 25 25" fill="none" xmlns="http://www.w3.org/2000/svg">
<path fill-rule="evenodd" clip-rule="evenodd" d="M8.33992 25C7.74233 24.8025 7.16285 24.5605 6.60641 24.2822C6.49118 24.1011 6.40886 23.9003 6.371 23.6896L5.99565 21.6482C5.74872 20.3049 4.69511 19.2529 3.35013 19.006L1.31206 18.6323C1.09311 18.5928 0.893915 18.5121 0.719413 18.3985C0.43955 17.8437 0.199197 17.2659 0 16.67C0.0460951 16.4559 0.1317 16.2584 0.253523 16.0806L1.43059 14.3734C2.20433 13.249 2.20433 11.7608 1.43059 10.6364L0.256815 8.92599C0.1317 8.7449 0.0477413 8.54405 0.00329251 8.33992C0.200843 7.74233 0.442842 7.16285 0.721059 6.60641C0.902147 6.49118 1.10299 6.40886 1.31371 6.371L3.35506 5.99565C4.69841 5.74872 5.75036 4.69511 5.9973 3.35013L6.371 1.31206C6.41051 1.09311 6.49118 0.893915 6.60477 0.719413C7.15956 0.43955 7.73739 0.199197 8.33333 0C8.54735 0.0460951 8.7449 0.1317 8.92269 0.253523L10.6299 1.43059C11.7542 2.20433 13.2425 2.20433 14.3669 1.43059L16.074 0.253523C16.2551 0.128408 16.4559 0.0444488 16.6601 0C17.2577 0.19755 17.8372 0.43955 18.3936 0.717766C18.5088 0.898854 18.5911 1.0997 18.629 1.31042L19.0043 3.35177C19.2513 4.69511 20.3049 5.74707 21.6499 5.99401L23.6879 6.36771C23.9069 6.40722 24.1061 6.48788 24.2806 6.60147C24.5604 7.15626 24.8008 7.7341 25 8.33004C24.9539 8.54405 24.8683 8.7416 24.7465 8.9194L23.5694 10.6266C22.7957 11.751 22.7957 13.2392 23.5694 14.3636L24.7465 16.0707C24.8716 16.2518 24.9556 16.4527 25 16.6568C24.8025 17.2544 24.5605 17.8339 24.2822 18.3903C24.1011 18.5055 23.9003 18.5878 23.6896 18.6257L21.6482 19.0011C20.3049 19.248 19.2529 20.3016 19.006 21.6466L18.6323 23.6846C18.5928 23.9036 18.5121 24.1028 18.3985 24.2773C17.8437 24.5572 17.2659 24.7975 16.67 24.9967C16.4559 24.9506 16.2584 24.865 16.0806 24.7432L14.3734 23.5661C13.249 22.7924 11.7608 22.7924 10.6364 23.5661L8.92928 24.7432C8.74819 24.8683 8.54735 24.9523 8.34321 24.9967L8.33992 25Z" fill="#818D99"/>
<circle cx="12.5015" cy="12.5016" r="5.26801" fill="#2A3744"/>
</svg>
