<svg width="108" height="20" viewBox="0 0 108 20" fill="none" xmlns="http://www.w3.org/2000/svg">
<path d="M9.07668 2.21993C9.41827 1.39864 10.5817 1.39864 10.9233 2.21993L12.4105 5.79546C12.5545 6.1417 12.8801 6.37827 13.2539 6.40823L17.114 6.7177C18.0006 6.78878 18.3601 7.89529 17.6846 8.47396L14.7436 10.9932C14.4588 11.2372 14.3345 11.6199 14.4215 11.9847L15.32 15.7515C15.5264 16.6167 14.5851 17.3006 13.826 16.8369L10.5213 14.8184C10.2012 14.6229 9.79876 14.6229 9.47875 14.8184L6.17397 16.8369C5.41487 17.3006 4.47362 16.6167 4.68001 15.7515L5.57852 11.9847C5.66553 11.6199 5.54116 11.2372 5.25637 10.9932L2.31539 8.47396C1.63985 7.89529 1.99938 6.78878 2.88603 6.7177L6.74612 6.40823C7.11991 6.37827 7.44552 6.1417 7.58953 5.79546L9.07668 2.21993Z" fill="#FFA076"/>
<path d="M31.0767 2.21993C31.4183 1.39864 32.5817 1.39864 32.9233 2.21993L34.4105 5.79546C34.5545 6.1417 34.8801 6.37827 35.2539 6.40823L39.114 6.7177C40.0006 6.78878 40.3601 7.89529 39.6846 8.47396L36.7436 10.9932C36.4588 11.2372 36.3345 11.6199 36.4215 11.9847L37.32 15.7515C37.5264 16.6167 36.5851 17.3006 35.826 16.8369L32.5213 14.8184C32.2012 14.6229 31.7988 14.6229 31.4787 14.8184L28.174 16.8369C27.4149 17.3006 26.4736 16.6167 26.68 15.7515L27.5785 11.9847C27.6655 11.6199 27.5412 11.2372 27.2564 10.9932L24.3154 8.47396C23.6399 7.89529 23.9994 6.78878 24.886 6.7177L28.7461 6.40823C29.1199 6.37827 29.4455 6.1417 29.5895 5.79546L31.0767 2.21993Z" fill="#FFA076"/>
<path d="M53.0767 2.21993C53.4183 1.39864 54.5817 1.39864 54.9233 2.21993L56.4105 5.79546C56.5545 6.1417 56.8801 6.37827 57.2539 6.40823L61.114 6.7177C62.0006 6.78878 62.3601 7.89529 61.6846 8.47396L58.7436 10.9932C58.4588 11.2372 58.3345 11.6199 58.4215 11.9847L59.32 15.7515C59.5264 16.6167 58.5851 17.3006 57.826 16.8369L54.5213 14.8184C54.2012 14.6229 53.7988 14.6229 53.4787 14.8184L50.174 16.8369C49.4149 17.3006 48.4736 16.6167 48.68 15.7515L49.5785 11.9847C49.6655 11.6199 49.5412 11.2372 49.2564 10.9932L46.3154 8.47396C45.6399 7.89529 45.9994 6.78878 46.886 6.7177L50.7461 6.40823C51.1199 6.37827 51.4455 6.1417 51.5895 5.79546L53.0767 2.21993Z" fill="#FFA076"/>
<path d="M75.0767 2.21993C75.4183 1.39864 76.5817 1.39864 76.9233 2.21993L78.4105 5.79546C78.5545 6.1417 78.8801 6.37827 79.2539 6.40823L83.114 6.7177C84.0006 6.78878 84.3601 7.89529 83.6846 8.47396L80.7436 10.9932C80.4588 11.2372 80.3345 11.6199 80.4215 11.9847L81.32 15.7515C81.5264 16.6167 80.5851 17.3006 79.826 16.8369L76.5213 14.8184C76.2012 14.6229 75.7988 14.6229 75.4787 14.8184L72.174 16.8369C71.4149 17.3006 70.4736 16.6167 70.68 15.7515L71.5785 11.9847C71.6655 11.6199 71.5412 11.2372 71.2564 10.9932L68.3154 8.47396C67.6399 7.89529 67.9994 6.78878 68.886 6.7177L72.7461 6.40823C73.1199 6.37827 73.4455 6.1417 73.5895 5.79546L75.0767 2.21993Z" fill="#FFA076"/>
<path d="M97.0767 2.21993C97.4183 1.39864 98.5817 1.39864 98.9233 2.21993L100.41 5.79546C100.554 6.1417 100.88 6.37827 101.254 6.40823L105.114 6.7177C106.001 6.78878 106.36 7.89529 105.685 8.47396L102.744 10.9932C102.459 11.2372 102.334 11.6199 102.421 11.9847L103.32 15.7515C103.526 16.6167 102.585 17.3006 101.826 16.8369L98.5213 14.8184C98.2012 14.6229 97.7988 14.6229 97.4787 14.8184L94.174 16.8369C93.4149 17.3006 92.4736 16.6167 92.68 15.7515L93.5785 11.9847C93.6655 11.6199 93.5412 11.2372 93.2564 10.9932L90.3154 8.47396C89.6399 7.89529 89.9994 6.78878 90.886 6.7177L94.7461 6.40823C95.1199 6.37827 95.4455 6.1417 95.5895 5.79546L97.0767 2.21993Z" fill="#FFD8C7"/>
</svg>
