<svg width="23" height="25" viewBox="0 0 23 25" fill="none" xmlns="http://www.w3.org/2000/svg">
<path d="M16.7103 6.25C16.7103 9.27684 14.215 11.75 11.1111 11.75C8.0072 11.75 5.5119 9.27684 5.5119 6.25C5.5119 3.22316 8.0072 0.75 11.1111 0.75C14.215 0.75 16.7103 3.22316 16.7103 6.25ZM11.1111 15.5938C12.4528 15.5938 13.7302 15.3113 14.8855 14.8125H15.5556C18.8331 14.8125 21.4722 17.4273 21.4722 20.625V22.6562C21.4722 23.5249 20.7527 24.25 19.8413 24.25H2.38095C1.4695 24.25 0.75 23.5249 0.75 22.6562V20.625C0.75 17.4273 3.38915 14.8125 6.66667 14.8125H7.33732C8.49562 15.3109 9.76839 15.5938 11.1111 15.5938Z" fill="#2A3744" stroke="white" stroke-width="1.5"/>
</svg>
