<svg width="25" height="25" viewBox="0 0 25 25" fill="none" xmlns="http://www.w3.org/2000/svg">
<path d="M12.5 14.7135C13.7225 14.7135 14.7136 13.7225 14.7136 12.5C14.7136 11.2775 13.7225 10.2865 12.5 10.2865C11.2775 10.2865 10.2865 11.2775 10.2865 12.5C10.2865 13.7225 11.2775 14.7135 12.5 14.7135Z" fill="#818D99"/>
<path d="M23.9323 11.5625H22.6303C22.1875 6.6927 18.3073 2.8125 13.4375 2.36979V1.0677C13.4375 0.54687 13.0209 0.130203 12.5 0.130203C11.9792 0.130203 11.5625 0.54687 11.5625 1.0677V2.36979C6.69275 2.8125 2.81254 6.6927 2.36983 11.5625H1.06775C0.546916 11.5625 0.130249 11.9792 0.130249 12.5C0.130249 13.0208 0.546916 13.4375 1.06775 13.4375H2.36983C2.81254 18.3073 6.69275 22.1875 11.5625 22.6302V23.9323C11.5625 24.4531 11.9792 24.8698 12.5 24.8698C13.0209 24.8698 13.4375 24.4531 13.4375 23.9323V22.6302C18.3073 22.1875 22.1875 18.3073 22.6303 13.4375H23.9323C24.4532 13.4375 24.8698 13.0208 24.8698 12.5C24.8698 11.9792 24.4532 11.5625 23.9323 11.5625ZM13.4375 20.7552V18.2292C13.4375 17.7083 13.0209 17.2917 12.5 17.2917C11.9792 17.2917 11.5625 17.7083 11.5625 18.2292V20.7552C7.73442 20.3125 4.68754 17.2656 4.24483 13.4375H6.77087C7.29171 13.4375 7.70837 13.0208 7.70837 12.5C7.70837 11.9792 7.29171 11.5625 6.77087 11.5625H4.24483C4.68754 7.73437 7.73442 4.6875 11.5625 4.24479V6.77083C11.5625 7.29166 11.9792 7.70833 12.5 7.70833C13.0209 7.70833 13.4375 7.29166 13.4375 6.77083V4.24479C17.2657 4.6875 20.3125 7.73437 20.7552 11.5625H18.2292C17.7084 11.5625 17.2917 11.9792 17.2917 12.5C17.2917 13.0208 17.7084 13.4375 18.2292 13.4375H20.7552C20.3125 17.2656 17.2657 20.3125 13.4375 20.7552Z" fill="#818D99"/>
</svg>
